<?xml version="1.0" encoding="UTF-8"?>
<svg version="1.1" xmlns="http://www.w3.org/2000/svg" width="200" height="200">
<path d="M0 0 C0.99 0.33 1.98 0.66 3 1 C4.07438555 3.46049422 4.91949712 5.75559463 5.6875 8.3125 C5.90591553 9.0358252 6.12433105 9.75915039 6.34936523 10.50439453 C9.23047537 20.65837318 9.22261804 29.61805142 4 39 C1.05196416 43.51470632 -2.53541167 47.4793738 -6.09765625 51.51171875 C-20.15088077 66.53758249 -20.15088077 66.53758249 -26.0546875 85.5703125 C-25.69862014 90.75651095 -24.47189207 94.38357455 -22 99 C-22.05220703 97.64068359 -22.05220703 97.64068359 -22.10546875 96.25390625 C-22.5846874 74.68906689 -9.86629441 60.14540924 3.67919922 44.52490234 C4.92973208 43.08112633 6.17025427 41.62869718 7.41015625 40.17578125 C8.12042969 39.35464844 8.83070312 38.53351562 9.5625 37.6875 C10.49255859 36.61048828 10.49255859 36.61048828 11.44140625 35.51171875 C13 34 13 34 15 34 C19.07840612 42.34219434 21.44210899 51.82963156 19 61 C16.39249401 68.2508188 10.91249443 73.73358653 5.88647461 79.39624023 C1.51705352 84.33062429 -2.52367259 89.38439418 -6 95 C-6.38542969 95.60972656 -6.77085938 96.21945313 -7.16796875 96.84765625 C-8.33580473 99.86867795 -8.18948286 102.525857 -8.125 105.75 C-8.10695312 106.92046875 -8.08890625 108.0909375 -8.0703125 109.296875 C-8.04710937 110.18890625 -8.02390625 111.0809375 -8 112 C-7.93683594 111.27296875 -7.87367187 110.5459375 -7.80859375 109.796875 C-6.05897643 95.43159597 2.36082957 85.93547134 11.65771484 75.53173828 C13.51390037 73.41356659 15.26377008 71.21690455 17 69 C17.99 69.33 18.98 69.66 20 70 C22.78247282 76.18327293 24.28411066 83.47564288 22 90 C19.98062596 93.28802978 17.53802076 96.10287114 15 99 C13.57480569 100.74306214 12.15811406 102.49311092 10.75 104.25 C9.78320312 105.43335938 9.78320312 105.43335938 8.796875 106.640625 C4.24292314 112.62016179 3.25697312 116.56973119 4 124 C4.85060013 126.97980201 4.85060013 126.97980201 6 129 C2.18063472 127.44396229 -0.26044438 125.04395069 -3 122 C-3 121.34 -3 120.68 -3 120 C-3.86625 119.86658203 -3.86625 119.86658203 -4.75 119.73046875 C-10.93716772 117.72178756 -15.86671359 110.48325121 -19 105 C-19 104.34 -19 103.68 -19 103 C-19.55945313 102.9278125 -20.11890625 102.855625 -20.6953125 102.78125 C-28.50626639 100.13346902 -35.20736754 90.05955349 -39 83 C-43.13874856 74.37629578 -43.22437197 65.21834823 -40.5 56.125 C-33.52097717 37.44942672 -19.89985492 22.79132925 -7 8 C-6.236875 7.1234375 -5.47375 6.246875 -4.6875 5.34375 C-3.12894968 3.5589585 -1.56734815 1.77706375 0 0 Z " fill="#E26A2F" transform="translate(97,24)"/>
<path d="M0 0 C0.99 0.33 1.98 0.66 3 1 C4.07438555 3.46049422 4.91949712 5.75559463 5.6875 8.3125 C5.90591553 9.0358252 6.12433105 9.75915039 6.34936523 10.50439453 C9.23047537 20.65837318 9.22261804 29.61805142 4 39 C1.05196416 43.51470632 -2.53541167 47.4793738 -6.09765625 51.51171875 C-20.15088077 66.53758249 -20.15088077 66.53758249 -26.0546875 85.5703125 C-25.70841206 90.61388954 -24.77201633 94.67565453 -22 99 C-21.34 99.33 -20.68 99.66 -20 100 C-20 100.99 -20 101.98 -20 103 C-29.01254362 99.10543929 -35.88033124 89.48749299 -40.03125 80.85546875 C-43.61577849 71.64522195 -42.78804515 62.24771316 -39.37890625 53.125 C-31.76267373 35.86441639 -19.2749894 22.07484122 -7 8 C-6.236875 7.1234375 -5.47375 6.246875 -4.6875 5.34375 C-3.12894968 3.5589585 -1.56734815 1.77706375 0 0 Z " fill="#F2C11A" transform="translate(97,24)"/>
<path d="M0 0 C0.73259033 0.13929932 1.46518066 0.27859863 2.2199707 0.42211914 C17.76280372 2.94381771 33.58082646 2.38514024 49.28393555 2.45629883 C51.97410956 2.4692047 54.66402737 2.48999889 57.3540802 2.51856995 C59.8617036 2.54446122 62.36948599 2.55870336 64.87724304 2.5589447 C77.07165977 2.70015079 87.78884622 4.56773055 97 13 C101.52038374 18.23756001 103.3331049 24.38662758 105 31 C103.515 31.495 103.515 31.495 102 32 C101.62875 31.2575 101.2575 30.515 100.875 29.75 C97.49320387 24.79003235 93.20521387 22.74758253 87.44967651 21.39038086 C82.42538415 20.58970879 77.35826314 20.80212813 72.28515625 20.875 C70.46968544 20.88635986 70.46968544 20.88635986 68.61753845 20.89794922 C63.46661536 20.93048814 58.31601643 20.98680757 53.1652832 21.04101562 C49.39275597 21.07729681 45.62028083 21.10141237 41.84765625 21.125 C40.1175808 21.14989502 40.1175808 21.14989502 38.35255432 21.17529297 C26.00092468 21.24983694 17.62166363 19.2589747 8.50390625 10.640625 C6.93396425 9.06314728 5.38030202 7.46920689 3.84765625 5.85546875 C2.12737792 3.93109375 2.12737792 3.93109375 0 3 C0 2.01 0 1.02 0 0 Z " fill="#653434" transform="translate(5,144)"/>
<path d="M0 0 C-1.571753 4.71525899 -5.63571439 6.09599528 -9.8605957 8.21484375 C-19.32272661 12.51370829 -28.78626181 12.12449031 -39 12 C-43.73604293 11.95860292 -48.47208153 11.92820212 -53.20825195 11.90625 C-56.47062443 11.89095259 -59.73109086 11.84929555 -62.99291992 11.7890625 C-73.13516826 11.65343706 -82.60334187 11.61733344 -91 18 C-91.66 18 -92.32 18 -93 18 C-91.93761074 13.04218346 -90.05082018 10.44342648 -86.17578125 7.38671875 C-74.72512345 0.08872321 -60.94753583 0.85851269 -47.87109375 0.68359375 C-46.55963882 0.66281265 -45.2481839 0.64203156 -43.89698792 0.62062073 C-40.44722158 0.56602215 -36.99740198 0.51635588 -33.54754639 0.46777344 C-30.02058188 0.41717107 -26.49369496 0.36164576 -22.96679688 0.30664062 C-3.13259638 0 -3.13259638 0 0 0 Z " fill="#6D3C3E" transform="translate(195,139)"/>
<path d="M0 0 C0.99 0.33 1.98 0.66 3 1 C5.78247282 7.18327293 7.28411066 14.47564288 5 21 C2.98062596 24.28802978 0.53802076 27.10287114 -2 30 C-3.42519431 31.74306214 -4.84188594 33.49311092 -6.25 35.25 C-6.89453125 36.03890625 -7.5390625 36.8278125 -8.203125 37.640625 C-12.75707686 43.62016179 -13.74302688 47.56973119 -13 55 C-12.14939987 57.97980201 -12.14939987 57.97980201 -11 60 C-14.87098267 58.42293299 -17.3453128 56.21356871 -20 53 C-20.96745294 50.32586084 -21.47560306 47.8126745 -22 45 C-22.66 45 -23.32 45 -24 45 C-24.50756114 32.31097146 -19.58341094 23.39009206 -11.5625 13.875 C-11.00240234 13.19824219 -10.44230469 12.52148438 -9.86523438 11.82421875 C-8.25090628 9.87647634 -6.62668628 7.93742442 -5 6 C-4.0294586 4.83634543 -3.05935829 3.67232274 -2.08984375 2.5078125 C-1.05537109 1.26644531 -1.05537109 1.26644531 0 0 Z " fill="#98393F" transform="translate(114,93)"/>
<path d="M0 0 C0.66 0 1.32 0 2 0 C4.95650478 4.21589903 6.31840994 8.70694782 7.83984375 13.57421875 C9.17777345 16.37170812 10.13240004 16.97628477 13 18 C12.96519531 17.26394531 12.93039063 16.52789062 12.89453125 15.76953125 C12.62019915 5.88051209 12.62019915 5.88051209 16 2 C16.99 1.34 17.98 0.68 19 0 C18.77183594 0.67804688 18.54367188 1.35609375 18.30859375 2.0546875 C15.80861768 10.14878043 15.23032003 16.61427138 18.4375 24.5625 C19.76951455 27.09794626 19.76951455 27.09794626 22 28 C22 28.99 22 29.98 22 31 C13.07913827 27.14505749 5.61654812 17.33323578 1.96875 8.50390625 C0 2.80729167 0 2.80729167 0 0 Z " fill="#F2D04C" transform="translate(55,96)"/>
<path d="M0 0 C9.405 1.485 9.405 1.485 19 3 C14.5 6.375 14.5 6.375 11 7 C11.59927826 10.35595828 12.84622436 12.37801226 15 15 C11.34858644 13.4744094 9.09881888 11.27519091 6.375 8.4375 C3.48929319 5.30957946 3.48929319 5.30957946 0 3 C0 2.01 0 1.02 0 0 Z " fill="#73494B" transform="translate(5,144)"/>
<path d="M0 0 C4.84840403 3.9248985 6.27500854 10.05507004 7 16 C6.01 16 5.02 16 4 16 C3.566875 15.2575 3.13375 14.515 2.6875 13.75 C0.62083389 10.38209967 -1.64605276 9.02634312 -5 7 C-5.99 6.34 -6.98 5.68 -8 5 C-5.03 5.495 -5.03 5.495 -2 6 C-2 5.34 -2 4.68 -2 4 C-1.34 4 -0.68 4 0 4 C0 2.68 0 1.36 0 0 Z " fill="#906E6E" transform="translate(103,160)"/>
<path d="M0 0 C0.83808528 2.98138533 1.17311282 5.78901022 1.375 8.875 C1.77356526 13.15799496 2.64156742 16.32084518 5 20 C5.66 20.33 6.32 20.66 7 21 C7 21.99 7 22.98 7 24 C3.2047869 22.50902342 1.38957269 20.24299151 -1 17 C-0.34 17 0.32 17 1 17 C0.34 16.01 -0.32 15.02 -1 14 C-1.23046875 11.15234375 -1.23046875 11.15234375 -1.1875 7.9375 C-1.18105469 6.87402344 -1.17460938 5.81054688 -1.16796875 4.71484375 C-1 2 -1 2 0 0 Z " fill="#F8DC71" transform="translate(70,103)"/>
<path d="M0 0 C1.05128687 3.23529832 0.91901775 5.39722097 0.125 8.6875 C-0.05804688 9.47511719 -0.24109375 10.26273438 -0.4296875 11.07421875 C-1 13 -1 13 -2 14 C-2.07244053 16.01964199 -2.08377188 18.04167124 -2.0625 20.0625 C-2.05347656 21.16722656 -2.04445313 22.27195312 -2.03515625 23.41015625 C-2.02355469 24.26480469 -2.01195313 25.11945313 -2 26 C-5.12442714 21.3133593 -4.46214799 16.49140552 -4 11 C-3.08692167 7.12498463 -1.77836912 3.55673823 0 0 Z " fill="#EA9061" transform="translate(79,98)"/>
<path d="M0 0 C3 1 3 1 3.984375 2.70703125 C4.23703125 3.40183594 4.4896875 4.09664062 4.75 4.8125 C5.01296875 5.49957031 5.2759375 6.18664062 5.546875 6.89453125 C6.06056958 9.28143969 5.76282269 10.70637773 5 13 C4.34 10.69 3.68 8.38 3 6 C0.36 6.33 -2.28 6.66 -5 7 C-1.125 1.125 -1.125 1.125 0 0 Z " fill="#F4D451" transform="translate(97,24)"/>
<path d="M0 0 C-1.31115051 3.93345152 -2.84212778 4.32374076 -6.4375 6.25 C-7.42621094 6.79140625 -8.41492188 7.3328125 -9.43359375 7.890625 C-10.28050781 8.25671875 -11.12742188 8.6228125 -12 9 C-12.66 8.67 -13.32 8.34 -14 8 C-13.01 7.34 -12.02 6.68 -11 6 C-11 4.68 -11 3.36 -11 2 C-11 1.67 -11 1.34 -11 1 C-9.54182203 0.83197949 -8.0834516 0.66562857 -6.625 0.5 C-5.81289062 0.4071875 -5.00078125 0.314375 -4.1640625 0.21875 C-2 0 -2 0 0 0 Z " fill="#7F5356" transform="translate(195,139)"/>
<path d="M0 0 C0.66 0.33 1.32 0.66 2 1 C-0.93169609 8.76899463 -0.93169609 8.76899463 -5 11 C-5.66 11 -6.32 11 -7 11 C-5.72278474 6.00724943 -3.82669043 3.42388092 0 0 Z " fill="#6D4344" transform="translate(109,146)"/>
<path d="M0 0 C0.66 0 1.32 0 2 0 C1.97679688 0.80824219 1.95359375 1.61648437 1.9296875 2.44921875 C1.91164063 3.51785156 1.89359375 4.58648437 1.875 5.6875 C1.84019531 7.27111328 1.84019531 7.27111328 1.8046875 8.88671875 C2.00141271 12.02251859 2.66942346 14.17645373 4 17 C0.83884224 15.63016497 0.0072908 15.0109362 -2 12 C-1.34 12 -0.68 12 0 12 C-0.185625 10.7625 -0.37125 9.525 -0.5625 8.25 C-0.94711223 5.23720423 -1.0874594 2.89989173 0 0 Z " fill="#C68084" transform="translate(99,136)"/>
<path d="M0 0 C0 3.27046435 -0.08048688 5.8473836 -1 9 C-3.9375 10.8125 -3.9375 10.8125 -7 12 C-7.99 12.495 -7.99 12.495 -9 13 C-7.50923566 9.7173068 -5.61379679 7.06922559 -3.375 4.25 C-2.74335937 3.45078125 -2.11171875 2.6515625 -1.4609375 1.828125 C-0.97882813 1.22484375 -0.49671875 0.6215625 0 0 Z " fill="#F2D250" transform="translate(79,45)"/>
<path d="M0 0 C0.99 0 1.98 0 3 0 C2.68289062 0.84820312 2.36578125 1.69640625 2.0390625 2.5703125 C0.97128768 6.09477225 0.59958921 9.20670957 0.375 12.875 C0.30023438 14.02742187 0.22546875 15.17984375 0.1484375 16.3671875 C0.09945312 17.23601562 0.05046875 18.10484375 0 19 C-2.79477511 14.80783733 -2.44946352 11.43717718 -1.546875 6.54296875 C-1.06389844 4.35232507 -0.55216241 2.1741395 0 0 Z " fill="#F29C6D" transform="translate(88,117)"/>
<path d="M0 0 C0.33 0.66 0.66 1.32 1 2 C1.66 2 2.32 2 3 2 C2 5 2 5 0.0625 6.375 C-2.43180549 8.34021038 -2.92007268 10.06876871 -4 13 C-4.99 13.495 -4.99 13.495 -6 14 C-5.41892368 10.2397015 -4.34800504 7.46964968 -2.4375 4.1875 C-1.98246094 3.39730469 -1.52742188 2.60710937 -1.05859375 1.79296875 C-0.53458984 0.90544922 -0.53458984 0.90544922 0 0 Z " fill="#F5D458" transform="translate(64,65)"/>
<path d="M0 0 C0.66 0.33 1.32 0.66 2 1 C-1.3 4.96 -4.6 8.92 -8 13 C-8.66 11.68 -9.32 10.36 -10 9 C-9.38125 8.7525 -8.7625 8.505 -8.125 8.25 C-5.58707638 6.75710375 -5.2585312 5.59572059 -4 3 C-1.875 1.25 -1.875 1.25 0 0 Z " fill="#F8D34E" transform="translate(87,77)"/>
<path d="M0 0 C2.72757734 2.02368642 3.0996442 4.22571942 3.9375 7.4375 C1.55801228 7.26124165 0.23524151 6.74030227 -1.44140625 5.03515625 C-2.68365486 3.53100908 -3.87626056 1.98620149 -5.0625 0.4375 C-2.0625 -0.5625 -2.0625 -0.5625 0 0 Z " fill="#ECA28E" transform="translate(90.0625,136.5625)"/>
<path d="M0 0 C0.33 0.66 0.66 1.32 1 2 C0.38125 3.010625 -0.2375 4.02125 -0.875 5.0625 C-3.42247224 9.22629945 -3.78213365 13.19604694 -4 18 C-4.33 18 -4.66 18 -5 18 C-5.55607983 6.23994134 -5.55607983 6.23994134 -2 2 C-1.34 1.34 -0.68 0.68 0 0 Z " fill="#F3CC3D" transform="translate(73,96)"/>
<path d="M0 0 C4.95 0.99 4.95 0.99 10 2 C8.68 2.33 7.36 2.66 6 3 C6.33 3.99 6.66 4.98 7 6 C3.47190093 6 2.53184488 5.35723489 0 3 C0 2.01 0 1.02 0 0 Z " fill="#916C72" transform="translate(5,144)"/>
<path d="M0 0 C0.33 0 0.66 0 1 0 C2.32420347 6.45549191 3.37422887 13.10510214 0 19 C-0.38218767 17.34385343 -0.71395102 15.67542976 -1 14 C-0.67 13.67 -0.34 13.34 0 13 C0.07258946 10.81360547 0.08373783 8.62499611 0.0625 6.4375 C0.05347656 5.23996094 0.04445313 4.04242188 0.03515625 2.80859375 C0.02355469 1.88175781 0.01195313 0.95492187 0 0 Z " fill="#EAC232" transform="translate(102,37)"/>
<path d="M0 0 C3.96 0 7.92 0 12 0 C7.577168 3.317124 6.28089024 3.30466674 1 3 C0.67 2.01 0.34 1.02 0 0 Z " fill="#552424" transform="translate(56,148)"/>
<path d="M0 0 C0.33 1.32 0.66 2.64 1 4 C0.01 4.66 -0.98 5.32 -2 6 C-3.19232613 8.05003955 -3.19232613 8.05003955 -4 10 C-4.99 9.67 -5.98 9.34 -7 9 C-4.69 6.03 -2.38 3.06 0 0 Z " fill="#EFD44D" transform="translate(87,35)"/>
<path d="M0 0 C0.33 0.66 0.66 1.32 1 2 C0.67 2.99 0.34 3.98 0 5 C-0.66 5 -1.32 5 -2 5 C-2.0825 5.61875 -2.165 6.2375 -2.25 6.875 C-3 9 -3 9 -5.0625 10.25 C-5.701875 10.4975 -6.34125 10.745 -7 11 C-5.5140084 6.40693504 -3.14985318 3.56430755 0 0 Z " fill="#C17A7B" transform="translate(103,106)"/>
<path d="M0 0 C0.33 0 0.66 0 1 0 C1.08090971 1.62418745 1.13914995 3.24951745 1.1875 4.875 C1.22230469 5.77992187 1.25710937 6.68484375 1.29296875 7.6171875 C1.19628906 8.40351562 1.09960938 9.18984375 1 10 C0.01 10.66 -0.98 11.32 -2 12 C-1.85831863 10.56208484 -1.71148957 9.1246763 -1.5625 7.6875 C-1.48128906 6.88699219 -1.40007813 6.08648437 -1.31640625 5.26171875 C-1 3 -1 3 0 0 Z " fill="#F7D24A" transform="translate(57,79)"/>
<path d="M0 0 C1.18771723 3.42943519 0.80226223 5.37784675 -0.4375 8.75 C-0.86869141 9.94882813 -0.86869141 9.94882813 -1.30859375 11.171875 C-1.65083984 12.07679687 -1.65083984 12.07679687 -2 13 C-3.18771723 9.57056481 -2.80226223 7.62215325 -1.5625 4.25 C-1.27503906 3.45078125 -0.98757812 2.6515625 -0.69140625 1.828125 C-0.46324219 1.22484375 -0.23507813 0.6215625 0 0 Z " fill="#EE9D72" transform="translate(116,76)"/>
<path d="M0 0 C2.45823172 3.68734758 3.01242616 6.69699971 4 11 C3.01 11 2.02 11 1 11 C0.4254048 7.26513121 0 3.78706732 0 0 Z " fill="#B29B9C" transform="translate(106,165)"/>
<path d="M0 0 C1.32 0 2.64 0 4 0 C4.33 1.98 4.66 3.96 5 6 C3.0625 5.25 3.0625 5.25 1 4 C0.25 1.875 0.25 1.875 0 0 Z " fill="#734D4F" transform="translate(102,166)"/>
<path d="M0 0 C0 3.58912412 -0.66436554 4.10857029 -3 6.6875 C-3.556875 7.31011719 -4.11375 7.93273437 -4.6875 8.57421875 C-5.120625 9.04472656 -5.55375 9.51523438 -6 10 C-6.33 9.34 -6.66 8.68 -7 8 C-4.54385965 3 -4.54385965 3 -3 1 C-2.01 0.67 -1.02 0.34 0 0 Z " fill="#F2D959" transform="translate(96,67)"/>
<path d="M0 0 C0.66 0.99 1.32 1.98 2 3 C-2.75 7 -2.75 7 -5 7 C-3.70700306 4.11562221 -2.34058637 2.12780579 0 0 Z " fill="#B3686C" transform="translate(111,97)"/>
<path d="M0 0 C0.99 0 1.98 0 3 0 C3 1.32 3 2.64 3 4 C1.68 4.33 0.36 4.66 -1 5 C-1.33 4.01 -1.66 3.02 -2 2 C-1.34 1.34 -0.68 0.68 0 0 Z " fill="#592428" transform="translate(111,146)"/>
<path d="M0 0 C1.65 0 3.3 0 5 0 C4.67 0.99 4.34 1.98 4 3 C2.35 3.33 0.7 3.66 -1 4 C-0.67 2.68 -0.34 1.36 0 0 Z " fill="#5A2629" transform="translate(180,143)"/>
<path d="M0 0 C0.33 0.66 0.66 1.32 1 2 C-0.30406884 4.01920337 -1.63823419 6.01924973 -3 8 C-3.33 8 -3.66 8 -4 8 C-4.25 5.6875 -4.25 5.6875 -4 3 C-2 1.1875 -2 1.1875 0 0 Z " fill="#F7D158" transform="translate(101,59)"/>
<path d="M0 0 C0.99 1.32 1.98 2.64 3 4 C-0.75 7 -0.75 7 -3 7 C-1.125 1.125 -1.125 1.125 0 0 Z " fill="#B58F91" transform="translate(105,150)"/>
<path d="M0 0 C-0.33 0.99 -0.66 1.98 -1 3 C-1.99 3.33 -2.98 3.66 -4 4 C-4 3.34 -4 2.68 -4 2 C-6.31 2 -8.62 2 -11 2 C-11 1.67 -11 1.34 -11 1 C-9.54182203 0.83197949 -8.0834516 0.66562857 -6.625 0.5 C-5.81289062 0.4071875 -5.00078125 0.314375 -4.1640625 0.21875 C-2 0 -2 0 0 0 Z " fill="#AD9091" transform="translate(195,139)"/>
<path d="M0 0 C0.66 0 1.32 0 2 0 C2 0.66 2 1.32 2 2 C2.66 2.33 3.32 2.66 4 3 C3.01 3.99 2.02 4.98 1 6 C0.34 5.67 -0.32 5.34 -1 5 C-0.67 3.35 -0.34 1.7 0 0 Z " fill="#F8CA36" transform="translate(73,90)"/>
</svg>
